# xmcd
#
# Track frame offsets: 
#        150
#        26019
#        57007
#        76465
#        95375
#        126687
#        151505
#        180732
#        203712
#        223955
#        252937
#        281695
#        304952
#
# Disc length: 4522 seconds
#
# Revision: 1
# Processed by: cddbd v1.5.2PL0 Copyright (c) Steve Scherf et al.
# Submitted via: ExactAudioCopy v1.3
#
DISCID=b911a80d
DTITLE=Various Atists - Piano Ballade
DYEAR=2003
DGENRE=Jazz
TTITLE0=Lllew Matthews Trio - Black Coffee
TTITLE1=Ray Bryant Trio - Please Send Me Someone To Love
TTITLE2=Gene Donovi Trio - Blue Prelude
TTITLE3=Jan Lundgren - The Lonely One
TTITLE4=Billy Childs Trio - Fragile
TTITLE5=The Michael Wolff Trio - Ballade Noir
TTITLE6=Karel Boehlee Trio - Yoe
TTITLE7=European Jazz Trio - Hello
TTITLE8=Walter Lang Trio - The Fool On The Hill
TTITLE9=Eric Reed Trio - Round Midnight
TTITLE10=Manhattan Trinity - Taxi Driver Theme
TTITLE11=Tommy Flanagan Trio - Lament
TTITLE12=Gene Dinove Trio - So In Love
EXTD=YEAR: 2003
EXTT0=
EXTT1=
EXTT2=
EXTT3=
EXTT4=
EXTT5=
EXTT6=
EXTT7=
EXTT8=
EXTT9=
EXTT10=
EXTT11=
EXTT12=
PLAYORDER=
